<svg xmlns="http://www.w3.org/2000/svg" width="640" height="400" viewBox="0 0 640 400" role="img" aria-labelledby="title desc">
<title id="title">Maintenance station</title><desc id="desc">Working at Height illustration for a fictional training mission.</desc>
<defs><linearGradient id="background" x2="1" y2="1"><stop stop-color="#f5f9ff"/><stop offset="1" stop-color="#e2edf8"/></linearGradient></defs>
<rect width="640" height="400" rx="18" fill="url(#background)"/>
<text x="26" y="32" fill="#1769aa" font-family="Arial, sans-serif" font-size="12" font-weight="600">WORKING AT HEIGHT</text><text x="26" y="61" fill="#073763" font-family="Arial, sans-serif" font-size="23" font-weight="600">Maintenance station</text>
<rect x="512" y="18" width="102" height="25" rx="12" fill="white" stroke="none" stroke-width="2"/><text x="527" y="35" fill="#1769aa" font-family="Arial, sans-serif" font-size="11" font-weight="600">TRAINING</text>
<circle cx="318" cy="228" r="135" fill="#dce9f6"/><rect x="178" y="281" width="307" height="21" rx="3" fill="#1769aa" stroke="none" stroke-width="2"/><path d="M194 302L194 347" fill="none" stroke="#073763" stroke-width="9" stroke-linecap="round" stroke-dasharray=""/><path d="M467 302L467 347" fill="none" stroke="#073763" stroke-width="9" stroke-linecap="round" stroke-dasharray=""/><path d="M182 137L182 281" fill="none" stroke="#073763" stroke-width="9" stroke-linecap="round" stroke-dasharray=""/><path d="M480 137L480 281" fill="none" stroke="#073763" stroke-width="9" stroke-linecap="round" stroke-dasharray=""/><path d="M183 146L479 146" fill="none" stroke="#073763" stroke-width="7" stroke-linecap="round" stroke-dasharray=""/><path d="M183 205L479 205" fill="none" stroke="#073763" stroke-width="7" stroke-linecap="round" stroke-dasharray=""/><path d="M283 146L283 281" fill="none" stroke="#1769aa" stroke-width="5" stroke-linecap="round" stroke-dasharray=""/><path d="M384 146L384 281" fill="none" stroke="#1769aa" stroke-width="5" stroke-linecap="round" stroke-dasharray=""/><rect x="197" y="251" width="266" height="22" rx="2" fill="#9bc2e4" stroke="none" stroke-width="2"/><rect x="252" y="175" width="125" height="74" rx="8" fill="#e9f2fb" stroke="#1769aa" stroke-width="3"/><circle cx="314" cy="212" r="22" fill="#b6d1e8"/><path d="M314 190L314 234" fill="none" stroke="#073763" stroke-width="5" stroke-linecap="round" stroke-dasharray=""/><path d="M292 212L336 212" fill="none" stroke="#073763" stroke-width="5" stroke-linecap="round" stroke-dasharray=""/>
</svg>